<svg width="135" height="94" viewBox="0 0 135 94" fill="none" xmlns="http://www.w3.org/2000/svg">
<g filter="url(#filter0_b_802_18)">
<path d="M55.8794 91.934C55.54 92.094 55.189 92.1747 54.8264 92.1761C53.9424 92.1795 53.3629 91.8077 53.088 91.0608C52.4466 89.3179 52.142 86.7691 52.1744 83.4143C52.1537 78.0877 52.8274 70.6277 54.1956 61.0343C53.8599 62.1463 53.458 63.7232 52.9899 65.765C52.5217 67.7842 52.0757 69.6672 51.6518 71.4142C51.2279 73.1612 50.7254 75.0785 50.1441 77.1661C49.5629 79.2537 48.9241 81.1149 48.2277 82.7496C47.5314 84.3843 46.744 85.906 45.8654 87.3148C45.0096 88.7234 44.0051 89.8153 42.8521 90.5905C41.7218 91.3655 40.4879 91.7557 39.1506 91.7609C36.9066 91.7696 35.2037 91.0168 34.0418 89.5026C32.9026 87.9884 32.3285 86.0753 32.3196 83.7633C32.3122 81.8593 32.6563 79.9993 33.3519 78.1832C34.0702 76.3671 35.1296 74.833 36.5301 73.5809C37.9533 72.3287 39.5488 71.6992 41.3168 71.6923C42.4955 71.6877 43.3583 72.0811 43.9054 72.8723C44.4752 73.6634 44.7624 74.6823 44.7673 75.929C44.7511 77.6064 44.3039 79.1834 43.4256 80.6602C42.5473 82.1369 41.5075 82.8776 40.3062 82.8823C39.5129 82.8854 38.9788 82.5134 38.7039 81.7665C39.6527 80.9468 40.498 79.7309 41.2397 78.1186C42.0042 76.5063 42.3842 75.1449 42.3799 74.0342C42.3773 73.3542 42.2168 72.8902 41.8985 72.6421C40.1325 73.1476 38.6644 74.5133 37.4944 76.7392C36.3469 78.9423 35.7779 81.2679 35.7874 83.7158C35.7936 85.3252 36.0824 86.718 36.6536 87.8945C37.2476 89.0935 38.1348 89.9174 39.3152 90.3662C39.9261 90.0692 40.5139 89.6815 41.0787 89.2034C41.6435 88.7252 42.1517 88.2472 42.6032 87.7694C43.0773 87.2916 43.5621 86.6324 44.0575 85.7918C44.5529 84.9512 44.9582 84.2583 45.2735 83.713C45.5887 83.1678 45.9708 82.3277 46.4197 81.1926C46.8913 80.0574 47.2393 79.2061 47.4638 78.6385C47.6883 78.071 48.0132 77.1064 48.4386 75.7447C48.8866 74.383 49.189 73.4411 49.3456 72.9192C49.5249 72.3971 49.8384 71.3873 50.2859 69.8895C50.4874 69.2541 50.6329 68.7775 50.7224 68.4598C51.8638 64.6927 52.7936 61.8897 53.5118 60.0509C51.1853 62.168 48.7899 64.0473 46.3256 65.6888C43.8612 67.3077 41.847 68.1202 40.283 68.1263C38.9457 68.1315 37.9469 67.7613 37.2867 67.0159C36.6263 66.2478 36.2942 65.3651 36.2904 64.3677C36.2883 63.8237 36.3998 63.37 36.6251 63.0064C36.8503 62.6202 37.1328 62.4151 37.4727 62.3911C37.7703 63.138 38.1124 63.692 38.4992 64.0532C38.9085 64.3916 39.5098 64.5593 40.3031 64.5562C41.7991 64.5504 43.7124 64.0216 46.043 62.9699C48.3735 61.8955 50.2962 60.8681 51.8111 59.8875C53.326 58.907 54.3998 58.1548 55.0324 57.631C55.7129 57.7644 56.3261 58.0567 56.8718 58.5079C57.4175 58.9364 57.6912 59.3887 57.6931 59.8647C57.694 60.114 57.6613 60.4315 57.5948 60.8171C57.5282 61.18 57.4059 61.8038 57.228 62.6885C57.05 63.5506 56.8835 64.4465 56.7284 65.3765C56.1297 68.8015 55.7027 72.6565 55.4473 76.9415C55.1918 81.2039 55.1708 84.5587 55.3843 87.0059C58.3488 74.0516 60.6394 65.6107 62.2562 61.683C62.9298 60.0484 63.6167 58.8897 64.3167 58.207C65.0394 57.5242 65.8087 57.1812 66.6247 57.178C67.2594 57.1756 67.7699 57.3096 68.1563 57.5801C68.5654 57.8505 68.8272 58.1669 68.942 58.5291C66.7707 59.7388 64.697 62.7502 62.721 67.5633C60.7676 72.3762 58.5961 79.3887 56.2065 88.6007C55.8712 89.826 55.7622 90.9371 55.8794 91.934ZM66.4591 76.0488C66.4658 77.7715 66.8224 79.1414 67.5291 80.1587C69.1926 76.5936 70.0197 73.6097 70.0104 71.207C70.0063 70.1644 69.5844 69.5087 68.7447 69.2399C68.1342 69.6276 67.5936 70.5024 67.1229 71.8642C66.6747 73.2033 66.4535 74.5982 66.4591 76.0488ZM64.8938 84.487C65.5036 83.9179 66.1909 82.8726 66.9557 81.3509C65.9764 80.1534 65.4365 78.2968 65.3361 75.7812C64.3485 78.301 63.8581 80.445 63.865 82.2129C63.87 83.5049 64.2129 84.2629 64.8938 84.487ZM68.8333 83.3157C67.6837 84.9748 66.3723 85.8072 64.899 85.813C63.743 85.8174 62.7782 85.4472 62.0046 84.7022C61.2084 83.9573 60.8077 82.9161 60.8025 81.5788C60.7964 80.0148 61.1297 78.2682 61.8022 76.3389C62.4521 74.4097 63.3067 72.6724 64.366 71.1269C64.8842 70.3089 65.3472 69.8991 65.7552 69.8975C65.9139 69.8969 66.0728 69.9416 66.2318 70.0317C66.9297 68.805 68.004 68.1888 69.4546 68.1832C70.4293 68.1794 71.3033 68.516 72.0766 69.193C72.8498 69.8473 73.2385 70.7185 73.2427 71.8065C73.247 72.9172 72.9129 74.4371 72.2404 76.3664C71.5904 78.273 70.7814 80.0668 69.8132 81.7479C72.0303 80.6513 74.4181 76.8 76.9765 70.194C77.4522 70.1242 77.6909 70.3046 77.6926 70.7352C77.6947 71.2792 77.4942 72.1867 77.0911 73.4576C76.688 74.7058 76.1491 76.0339 75.4746 77.4419C74.8226 78.8271 73.9774 80.0544 72.9388 81.1237C71.9229 82.1704 70.8936 82.6957 69.8509 82.6997C69.5789 82.7008 69.3862 82.6902 69.2728 82.668C69.2277 82.7361 69.1488 82.8498 69.0361 83.0089C68.946 83.1452 68.8784 83.2475 68.8333 83.3157ZM76.4457 85.8022C75.7884 85.8047 75.2093 85.535 74.7086 84.9929C74.2305 84.4508 73.99 83.817 73.9872 83.0917C73.9848 82.4797 74.7824 80.6406 76.3798 77.5744C77.9998 74.4854 78.8093 72.7936 78.8082 72.4989C78.8069 72.1816 78.5677 71.8652 78.0905 71.5497C77.4996 71.1667 77.0901 70.7716 76.8619 70.3645C76.6562 69.9346 76.5519 69.3456 76.549 68.5977C76.5425 66.9203 76.7983 65.6613 77.3164 64.8206C77.857 63.9572 78.49 63.5241 79.2153 63.5213C79.9407 63.5185 80.4973 63.845 80.8852 64.5008C79.9383 65.8418 79.0263 67.3867 78.1491 69.1355C77.9917 69.4534 77.9134 69.737 77.9144 69.9864C77.9155 70.2584 78.0181 70.428 78.2224 70.4952C78.4493 70.5623 78.733 70.6519 79.0734 70.7639C79.4139 70.8759 79.6522 70.9543 79.7883 70.9991C79.9472 71.0438 80.1401 71.1111 80.3671 71.2009C80.5941 71.268 80.753 71.3354 80.8439 71.403C80.9348 71.4707 81.0372 71.5496 81.1508 71.6398C81.2872 71.73 81.3669 71.8317 81.39 71.9449C81.4358 72.0581 81.4703 72.1939 81.4936 72.3525C81.5395 72.4883 81.5628 72.6582 81.5636 72.8622C81.5664 73.5876 80.7248 75.7668 79.0389 79.4001C77.8025 82.0569 77.1631 83.7367 77.1204 84.4396C78.4326 83.7998 79.8772 82.2188 81.4541 79.6967C83.0309 77.1519 84.4256 74.4152 85.6383 71.4864C85.8195 71.4631 85.9105 71.5307 85.9111 71.6894C85.9128 72.1427 85.6106 73.1185 85.0044 74.6169C84.3982 76.1153 83.645 77.7049 82.7449 79.3857C81.8673 81.0438 80.8304 82.5325 79.6342 83.8518C78.4605 85.1484 77.3977 85.7985 76.4457 85.8022ZM84.6529 85.7704C83.9049 85.7733 83.2466 85.5151 82.6779 84.996C82.0866 84.477 81.7894 83.8434 81.7865 83.0955C81.7801 81.4408 83.2588 76.9697 86.2226 69.6821C85.6558 69.6617 85.0549 69.6073 84.4199 69.5191C84.3969 69.4286 84.3852 69.3379 84.3849 69.2473C84.3832 68.8166 84.5863 68.5892 84.9942 68.5649C85.3568 68.5408 85.9234 68.5273 86.6941 68.5243C87.6599 66.2312 88.2777 64.8008 88.5475 64.2331C90.2472 64.1585 91.0989 64.5972 91.1026 65.5492C91.1042 65.9799 90.7454 66.9673 90.0261 68.5114C90.2981 68.5103 90.6948 68.5201 91.2162 68.5408C91.7375 68.5388 92.1228 68.5373 92.3722 68.5363C92.4635 68.6946 92.5093 68.8304 92.5098 68.9438C92.5116 69.4198 91.5153 69.6956 89.5209 69.7714C88.331 72.7227 86.9737 76.332 85.4489 80.5992C85.1128 81.5979 84.9457 82.3579 84.9477 82.8792C84.9272 83.4233 85.0648 83.8421 85.3606 84.1356C87.509 82.8579 90.054 78.632 92.9955 71.4579C93.1767 71.4345 93.2677 71.5022 93.2683 71.6608C93.2708 72.2955 92.8117 73.7366 91.891 75.9842C90.9703 78.2091 89.8002 80.401 88.3805 82.5599C86.9608 84.6961 85.7183 85.7662 84.6529 85.7704ZM97.7367 85.7196C97.1247 85.722 96.5684 85.4521 96.0676 84.9101C95.5668 84.368 95.315 83.723 95.3121 82.975C95.3071 81.7057 96.1596 79.4017 97.8693 76.063C98.0493 75.7223 98.3418 75.1659 98.7468 74.3936C99.1744 73.5986 99.4669 73.0308 99.6242 72.6902C99.8042 72.3495 100.018 71.918 100.265 71.3957C100.513 70.8734 100.67 70.4648 100.736 70.1699C100.826 69.8522 100.859 69.5914 100.835 69.3875C100.065 69.4131 98.5087 71.4479 96.1671 75.4916C93.8254 79.5354 92.0705 82.9082 90.9023 85.6101C90.3808 85.5895 89.984 85.557 89.7119 85.5127C89.417 85.4685 89.1446 85.3563 88.8946 85.1759C88.6444 84.9729 88.5187 84.7014 88.5174 84.3614C88.5137 83.4094 89.1962 81.1174 90.5647 77.4854C90.9685 76.3958 91.7764 74.296 92.9883 71.1859C95.4801 64.9202 97.2879 60.5838 98.4119 58.1768C97.7552 58.338 97.1662 58.4196 96.6449 58.4216C95.8515 58.4247 95.4314 58.211 95.3844 57.7805C95.3838 57.6219 95.4396 57.4063 95.5519 57.1339C96.1413 57.1543 96.8212 57.129 97.5916 57.058C98.3846 56.9642 98.8944 56.9169 99.121 56.916C99.6877 56.9138 100.187 57.1386 100.62 57.5902C101.052 58.0419 101.269 58.5057 101.271 58.9817C101.272 59.1857 101.171 59.5374 100.969 60.0369C100.79 60.5136 100.498 61.2061 100.093 62.1143C99.6887 63.0225 99.3966 63.681 99.2169 64.0897C97.1056 69.0846 95.3884 73.4433 94.0655 77.1658C95.5953 74.1905 96.9013 71.9414 97.9834 70.4185C99.0654 68.873 100.082 68.0984 101.034 68.0947C101.737 68.092 102.384 68.2708 102.975 68.6312C103.588 68.9915 103.896 69.5229 103.899 70.2256C103.903 71.2229 103.005 73.5158 101.205 77.1041C99.3163 80.9648 98.3847 83.2918 98.4104 84.085C99.5642 83.5139 100.738 82.1606 101.931 80.0253C102.248 79.9787 102.407 80.1028 102.408 80.3975C102.411 81.2135 101.872 82.3036 100.789 83.6678C99.7061 85.032 98.6887 85.7159 97.7367 85.7196Z" fill="#324261"/>
<path d="M30.958 55.4932C31.8691 59.1659 31.5854 62.5909 30.1069 65.7684C28.6355 68.9743 26.0777 71.0292 22.4335 71.9332C18.9316 72.8019 16.0794 72.4517 13.8768 70.8825C11.6742 69.3133 10.2021 67.034 9.46056 64.0446C8.67662 60.8844 8.87072 57.8291 10.0429 54.8788C11.2435 51.9214 13.2531 50.0931 16.0716 49.3939C17.9507 48.9278 19.5685 49.2971 20.9252 50.5019C22.3032 51.6712 23.2395 53.2523 23.7338 55.2452C24.2423 57.2951 24.1997 59.1946 23.6061 60.9436C23.0338 62.6572 21.922 63.7187 20.2707 64.1284C19.2743 64.3756 18.4955 64.2212 17.9345 63.6652C18.641 62.4926 19.1168 60.9995 19.362 59.1858C19.6072 57.372 19.5461 55.725 19.1789 54.2445C18.7269 52.4224 17.8893 51.3608 16.6662 51.0598C15.3345 51.783 14.4281 53.3679 13.947 55.8143C13.4588 58.2324 13.529 60.7083 14.1575 63.2422C14.7013 65.4344 15.6622 67.1756 17.04 68.4658C18.4249 69.7845 20.1634 70.3355 22.2554 70.1187C24.1638 69.1618 25.533 67.3714 26.3631 64.7478C27.2216 62.117 27.3684 59.6628 26.8034 57.3852C26.2878 55.3068 25.5124 53.3383 24.477 51.4795C23.4347 49.5923 22.4201 48.0609 21.4333 46.8852C20.4466 45.7095 19.4497 44.2493 18.4426 42.5044C17.4285 40.7311 16.6884 38.9049 16.2222 37.0258C15.5442 34.2927 15.7442 31.9311 16.8221 29.941C17.9214 27.9154 19.4106 26.6695 21.2896 26.2034C23.5672 25.6384 25.4772 25.7842 27.0195 26.6407C28.5617 27.4973 29.7261 28.78 30.5127 30.4889C30.145 29.2503 29.8694 28.2609 29.6857 27.5206C28.4357 22.4814 28.8641 19.7004 30.9709 19.1778C31.6257 19.0154 32.2908 19.0771 32.9661 19.3629C33.6415 19.6487 34.1848 20.1334 34.5962 20.8172C33.9763 21.3638 33.4558 22.0067 33.0347 22.7459C32.6136 23.485 32.2958 24.1532 32.0812 24.7504C31.8667 25.3476 31.7052 26.1584 31.5966 27.1826C31.488 28.2069 31.419 28.9645 31.3897 29.4553C31.3888 29.9391 31.3802 30.7572 31.3639 31.9097C31.3537 33.5745 31.2729 34.9545 31.1215 36.0499C30.9273 37.2163 30.5413 38.2187 29.9635 39.0571C29.4071 39.86 28.7588 40.3533 28.0186 40.5369C27.3068 40.7135 26.6134 40.5984 25.9383 40.1917C27.2091 37.7609 27.5269 35.1433 26.8917 32.3391C26.1996 29.549 24.8473 27.8747 22.835 27.3161C21.7103 27.6555 20.8869 28.5398 20.365 29.9688C19.8715 31.3908 19.8578 33.0413 20.324 34.9203C20.7548 36.657 21.4737 38.3978 22.4808 40.1427C23.4878 41.8875 24.4953 43.3905 25.5033 44.6516C26.5112 45.9127 27.5434 47.5153 28.6 49.4594C29.6565 51.4036 30.4425 53.4148 30.958 55.4932ZM49.0398 57.6264C48.2711 57.8171 47.382 57.7052 46.3725 57.2908C45.3915 56.8692 44.8198 56.331 44.6574 55.6762C44.5585 55.2776 44.4845 54.8578 44.4356 54.4166C44.3866 53.9754 44.3587 53.6196 44.3521 53.3493C44.3669 53.0434 44.3713 52.5738 44.3654 51.9406C44.3879 51.3004 44.4065 50.8273 44.4213 50.5214C44.07 52.029 43.7868 53.2024 43.5718 54.0415C43.3498 54.8521 43.0423 55.7444 42.6492 56.7184C42.2846 57.6853 41.8777 58.4209 41.4286 58.9252C40.9795 59.4295 40.456 59.7558 39.8581 59.9041C38.9755 60.123 38.1254 60.1073 37.3077 59.8568C36.4829 59.5778 35.954 58.9686 35.721 58.029C35.3184 56.4062 35.6454 52.6682 36.7018 46.815C37.657 41.8936 37.9501 39.1764 37.5811 38.6635C37.5526 38.6706 37.282 38.7981 36.7693 39.0462C36.2781 39.2587 35.8758 39.4038 35.5627 39.4815C34.7086 39.6934 34.2215 39.5573 34.1014 39.0733C34.059 38.9025 34.0488 38.6784 34.0706 38.401C34.5831 38.2739 35.2985 38.0511 36.2168 37.7326C37.1636 37.407 37.7936 37.2054 38.1068 37.1277C38.8186 36.9512 39.4658 37.0626 40.0484 37.4621C40.624 37.8331 41.0213 38.4599 41.2402 39.3425C41.5086 40.4244 41.2435 43.3763 40.445 48.1984C39.5667 53.9168 39.2798 57.1462 39.5843 57.8867C40.709 57.5472 41.834 55.077 42.9594 50.4761C44.0847 45.8751 44.8191 41.0991 45.1625 36.1481C45.7034 36.014 46.2159 35.8868 46.6999 35.7668C47.2124 35.6396 47.6677 35.6476 48.0658 35.7906C48.464 35.9336 48.7231 36.2471 48.8431 36.7311C48.9632 37.2151 48.8765 39.9113 48.5829 44.8197C48.2894 49.7281 48.3545 53.0364 48.7783 54.7446C48.8419 55.0009 48.9445 55.2927 49.0862 55.6203C50.006 54.4552 50.7849 52.5997 51.4227 50.054C52.0605 47.5082 52.4852 44.8339 52.6966 42.0312C52.0674 39.8602 51.7971 37.857 51.8858 36.0217C51.9823 33.852 52.486 32.6541 53.3971 32.4281C53.938 32.2939 54.4605 32.5119 54.9646 33.0819C55.4901 33.6165 55.8411 34.2396 56.0177 34.9514C56.4838 36.8304 56.5074 39.4841 56.0885 42.9125C57.3487 42.3883 58.2823 41.5221 58.8892 40.3137C59.4962 39.1054 59.94 37.6051 60.2207 35.8128C60.4414 35.7278 60.5765 35.7849 60.6259 35.9842C60.6754 36.1835 60.6567 36.6566 60.57 37.4035C60.4762 38.1218 60.2968 38.9824 60.0317 39.985C59.7666 40.9876 59.2562 41.9756 58.5003 42.9489C57.7658 43.8867 56.8575 44.5502 55.7754 44.9395C55.2431 48.1543 54.3877 50.9807 53.2094 53.4188C52.024 55.8284 50.6342 57.2309 49.0398 57.6264ZM64.5943 20.8557C65.2847 20.7147 65.7757 20.6231 66.0675 20.581C66.3807 20.5033 66.7471 20.4577 67.1669 20.4442C67.6152 20.4237 67.9387 20.5097 68.1376 20.7021C68.3578 20.859 68.5103 21.1083 68.5951 21.45C68.8564 22.5034 67.9388 24.3479 65.8424 26.9835C65.058 27.9639 64.6016 28.5606 64.4732 28.7738C64.032 28.8228 63.7584 28.6338 63.6525 28.2068C63.5819 27.922 63.6325 27.4561 63.8044 26.809C64.263 25.0028 64.5263 23.0184 64.5943 20.8557ZM71.7004 33.2371C71.8981 34.0342 71.706 36.001 71.124 39.1374C70.542 42.2738 69.6577 45.4096 68.471 48.5449C67.2843 51.6802 66.0646 53.4032 64.8119 53.714C63.9862 53.9188 63.1825 53.8462 62.4005 53.4961C61.5901 53.1532 61.0966 52.6258 60.92 51.914C60.6234 50.7183 60.6805 48.6943 61.0912 45.8422C61.4664 42.9687 61.8877 40.1593 62.3551 37.414C62.851 34.6616 63.0499 32.9047 62.9517 32.1433C62.275 32.5831 61.652 32.8737 61.0825 33.015C60.4277 33.1774 60.0473 33.0451 59.9414 32.618C59.8849 32.3903 59.8746 32.1661 59.9106 31.9457C60.3732 31.8611 61.0067 31.6738 61.8112 31.3835C62.6156 31.0933 63.1745 30.9093 63.4876 30.8317C65.3097 30.3797 66.4115 30.9224 66.7929 32.4598C67.0612 33.5416 66.7781 36.6643 65.9434 41.8279C65.1301 46.9559 64.7827 50.1852 64.9013 51.5158C66.2625 50.1807 67.5227 47.7072 68.6819 44.0952C69.8694 40.4762 70.7405 36.7996 71.2952 33.0656C71.5159 32.9806 71.6509 33.0378 71.7004 33.2371ZM78.7628 47.5785C79.3322 47.4373 79.7996 46.7018 80.1648 45.3721C80.523 44.0139 80.9191 41.4072 81.353 37.552C81.9241 32.5445 81.9404 29.4426 81.4019 28.2464C80.3269 28.6642 79.3741 30.3059 78.5436 33.1715C77.7061 36.0086 76.9048 40.3932 76.1399 46.3252C77.2337 47.3232 78.108 47.741 78.7628 47.5785ZM74.1308 65.4557C72.2445 66.0143 71.1636 65.7384 70.8881 64.6281C70.4432 62.8344 71.0518 54.871 72.7138 40.7377C73.993 29.8123 74.6439 23.969 74.6667 23.2078C75.7271 22.975 76.4814 22.9088 76.9294 23.0092C77.4059 23.1026 77.7112 23.4197 77.8454 23.9606C77.9443 24.3592 77.9214 25.2414 77.7766 26.6071C77.6603 27.9657 77.483 29.5661 77.2449 31.4083C77.0068 33.2505 76.8551 34.5273 76.7897 35.2386C77.8957 29.5847 79.3312 26.5388 81.0964 26.1009C81.8935 25.9031 82.7505 26.0683 83.6673 26.5965C84.5841 27.1246 85.159 27.8584 85.3921 28.798C85.9783 31.161 86.1116 34.1351 85.792 37.7201C85.5009 41.2981 84.8055 44.2209 83.7058 46.4884C85.1602 44.7978 86.5131 42.2106 87.7644 38.7269C89.0158 35.2431 89.9079 31.7729 90.4406 28.3163C90.6613 28.2313 90.7964 28.2885 90.8458 28.4877C90.9588 28.9433 90.9358 29.8859 90.7767 31.3156C90.6175 32.7453 90.2801 34.4308 89.7643 36.3721C89.2415 38.2849 88.6084 40.1797 87.8651 42.0566C87.1147 43.9049 86.105 45.5608 84.836 47.024C83.5954 48.4802 82.2349 49.3919 80.7544 49.7592C79.0462 50.1829 77.4467 49.5219 75.9558 47.7762C75.4072 52.1434 74.7988 58.0366 74.1308 65.4557ZM99.0233 23.3312C98.0695 23.6283 97.1518 25.5332 96.2703 29.0461C95.4103 32.5235 95.0061 35.7065 95.0577 38.595C96.204 38.0991 97.1845 36.8736 97.9991 34.9187C98.8137 32.9637 99.3473 30.9726 99.6 28.9455C99.8457 26.8899 99.8343 25.3211 99.5659 24.2393C99.4459 23.7553 99.265 23.4526 99.0233 23.3312ZM103.566 36.8924C103.827 37.9458 103.405 39.5315 102.298 41.6496C101.192 43.7677 99.9692 44.9927 98.6311 45.3246C96.9229 45.7484 95.3721 45.6495 93.9788 45.028C92.5855 44.4065 91.7088 43.3698 91.3486 41.9178C90.7907 39.6686 90.6926 36.8974 91.0543 33.6041C91.416 30.3108 92.1823 27.5518 93.3531 25.3271C94.2456 23.5644 95.5602 22.4676 97.2969 22.0368C98.5496 21.726 99.702 21.8028 100.754 22.2672C101.835 22.7245 102.551 23.6649 102.905 25.0884C103.222 26.3696 103.187 28.0556 102.799 30.1465C102.44 32.2304 101.671 34.2495 100.494 36.2038C99.3449 38.151 97.959 39.326 96.3362 39.7285C95.9092 39.8345 95.4965 39.8764 95.0981 39.8543C95.1965 40.4948 95.274 40.9289 95.3305 41.1567C95.6412 42.4094 96.3549 43.1541 97.4714 43.3909C98.7671 42.8882 99.8786 42.008 100.806 40.7505C101.733 39.4929 102.415 38.0997 102.852 36.5709C103.236 36.4151 103.474 36.5223 103.566 36.8924Z" fill="#324261"/>
</g>
<defs>
<filter id="filter0_b_802_18" x="-3.77722" y="-1.28937" width="118.479" height="97.5526" filterUnits="userSpaceOnUse" color-interpolation-filters="sRGB">
<feFlood flood-opacity="0" result="BackgroundImageFix"/>
<feGaussianBlur in="BackgroundImageFix" stdDeviation="2"/>
<feComposite in2="SourceAlpha" operator="in" result="effect1_backgroundBlur_802_18"/>
<feBlend mode="normal" in="SourceGraphic" in2="effect1_backgroundBlur_802_18" result="shape"/>
</filter>
</defs>
</svg>
