<svg width="36" height="36" viewBox="0 0 36 36" fill="none" xmlns="http://www.w3.org/2000/svg">
<g opacity="0.8" clip-path="url(#clip0_872_78)">
<path d="M12.37 24C11.4803 23.9962 10.6147 24.2892 9.91022 24.8325C9.20569 25.3758 8.70242 26.1385 8.48 27H5C4.73478 27 4.48043 27.1054 4.29289 27.2929C4.10536 27.4804 4 27.7348 4 28C4 28.2652 4.10536 28.5196 4.29289 28.7071C4.48043 28.8946 4.73478 29 5 29H8.48C8.68935 29.8741 9.18701 30.6523 9.89275 31.209C10.5985 31.7656 11.4711 32.0684 12.37 32.0684C13.2689 32.0684 14.1415 31.7656 14.8473 31.209C15.553 30.6523 16.0507 29.8741 16.26 29H31C31.2652 29 31.5196 28.8946 31.7071 28.7071C31.8946 28.5196 32 28.2652 32 28C32 27.7348 31.8946 27.4804 31.7071 27.2929C31.5196 27.1054 31.2652 27 31 27H16.26C16.0376 26.1385 15.5343 25.3758 14.8298 24.8325C14.1253 24.2892 13.2597 23.9962 12.37 24ZM14.37 28C14.37 28.3956 14.2527 28.7822 14.0329 29.1111C13.8132 29.44 13.5008 29.6964 13.1354 29.8478C12.7699 29.9991 12.3678 30.0387 11.9798 29.9616C11.5919 29.8844 11.2355 29.6939 10.9558 29.4142C10.6761 29.1345 10.4856 28.7781 10.4084 28.3902C10.3313 28.0022 10.3709 27.6001 10.5222 27.2346C10.6736 26.8692 10.93 26.5568 11.2589 26.3371C11.5878 26.1173 11.9744 26 12.37 26C12.6352 25.996 12.8985 26.0448 13.1446 26.1435C13.3907 26.2423 13.6147 26.389 13.8036 26.5751C13.9926 26.7612 14.1426 26.983 14.2449 27.2276C14.3473 27.4723 14.4 27.7348 14.4 28H14.37Z" fill="black"/>
<path d="M15.83 4C14.9403 3.99622 14.0747 4.28916 13.3702 4.8325C12.6657 5.37583 12.1624 6.13855 11.94 7L5 7C4.73478 7 4.48043 7.10536 4.29289 7.29289C4.10536 7.48043 4 7.73479 4 8C4 8.26522 4.10536 8.51957 4.29289 8.70711C4.48043 8.89465 4.73478 9 5 9H11.94C12.1493 9.87414 12.647 10.6523 13.3527 11.209C14.0585 11.7656 14.9311 12.0684 15.83 12.0684C16.7289 12.0684 17.6015 11.7656 18.3073 11.209C19.013 10.6523 19.5107 9.87414 19.72 9L31 9C31.2652 9 31.5196 8.89465 31.7071 8.70711C31.8946 8.51957 32 8.26522 32 8C32 7.73479 31.8946 7.48043 31.7071 7.29289C31.5196 7.10536 31.2652 7 31 7L19.72 7C19.4976 6.13855 18.9943 5.37583 18.2898 4.8325C17.5853 4.28916 16.7197 3.99622 15.83 4ZM17.83 8C17.83 8.39556 17.7127 8.78224 17.4929 9.11114C17.2732 9.44004 16.9608 9.69639 16.5954 9.84776C16.2299 9.99914 15.8278 10.0387 15.4398 9.96157C15.0519 9.8844 14.6955 9.69392 14.4158 9.41422C14.1361 9.13451 13.9456 8.77814 13.8684 8.39018C13.7913 8.00222 13.8309 7.60009 13.9822 7.23463C14.1336 6.86918 14.39 6.55683 14.7189 6.33706C15.0478 6.1173 15.4344 6 15.83 6C16.096 5.99468 16.3604 6.04248 16.6077 6.14061C16.8549 6.23873 17.0802 6.38521 17.2701 6.57146C17.4601 6.75771 17.611 6.97999 17.714 7.22528C17.817 7.47058 17.8701 7.73396 17.87 8H17.83Z" fill="black"/>
<path d="M24.5 14C23.6103 13.9962 22.7447 14.2892 22.0402 14.8325C21.3357 15.3758 20.8324 16.1385 20.61 17H5C4.73478 17 4.48043 17.1054 4.29289 17.2929C4.10536 17.4804 4 17.7348 4 18C4 18.2652 4.10536 18.5196 4.29289 18.7071C4.48043 18.8946 4.73478 19 5 19H20.61C20.8193 19.8741 21.317 20.6523 22.0227 21.209C22.7285 21.7656 23.6011 22.0684 24.5 22.0684C25.3989 22.0684 26.2715 21.7656 26.9773 21.209C27.683 20.6523 28.1807 19.8741 28.39 19H31C31.2652 19 31.5196 18.8946 31.7071 18.7071C31.8946 18.5196 32 18.2652 32 18C32 17.7348 31.8946 17.4804 31.7071 17.2929C31.5196 17.1054 31.2652 17 31 17H28.39C28.1676 16.1385 27.6643 15.3758 26.9598 14.8325C26.2553 14.2892 25.3897 13.9962 24.5 14ZM26.5 18C26.5 18.3956 26.3827 18.7822 26.1629 19.1111C25.9432 19.44 25.6308 19.6964 25.2654 19.8478C24.8999 19.9991 24.4978 20.0387 24.1098 19.9616C23.7219 19.8844 23.3655 19.6939 23.0858 19.4142C22.8061 19.1345 22.6156 18.7781 22.5384 18.3902C22.4613 18.0022 22.5009 17.6001 22.6522 17.2346C22.8036 16.8692 23.06 16.5568 23.3889 16.3371C23.7178 16.1173 24.1044 16 24.5 16C24.7652 15.996 25.0285 16.0448 25.2746 16.1435C25.5207 16.2423 25.7447 16.389 25.9336 16.5751C26.1226 16.7612 26.2726 16.983 26.3749 17.2276C26.4773 17.4723 26.53 17.7348 26.53 18H26.5Z" fill="black"/>
</g>
<defs>
<clipPath id="clip0_872_78">
<rect width="36" height="36" fill="white" transform="matrix(0 -1 1 0 0 36)"/>
</clipPath>
</defs>
</svg>
